HIERARCHY
ROOT root     
{
	OFFSET 0.0000 0.0000 0.0000
	CHANNELS 6 Xposition Yposition Zposition Zrotation Yrotation Xrotation
	JOINT pelvis   
	{
		OFFSET 0.0000 0.0000 0.0000
		CHANNELS 3 Zrotation Yrotation Xrotation
		JOINT thorax   
		{
			OFFSET 0.0000 23.0750 -5.0000
			CHANNELS 3 Zrotation Yrotation Xrotation
			JOINT rclavicle
			{
				OFFSET 0.0000 28.0009 0.0000
				CHANNELS 3 Zrotation Yrotation Xrotation
				JOINT rhumerus 
				{
					OFFSET -18.5725 5.5939 0.0000
					CHANNELS 3 Zrotation Yrotation Xrotation
					JOINT rradius  
					{
						OFFSET -24.8459 0.0000 0.0000
						CHANNELS 3 Zrotation Yrotation Xrotation
						JOINT rhand    
						{
							OFFSET -24.5477 0.0000 0.0000
							CHANNELS 3 Zrotation Yrotation Xrotation
							End Site
							{
								OFFSET -8.1826 0.0000 0.0000
							}
						}
					}
				}
			}
			JOINT lclavicle
			{
				OFFSET 0.0000 28.0009 0.0000
				CHANNELS 3 Zrotation Yrotation Xrotation
				JOINT lhumerus 
				{
					OFFSET 18.5725 5.5939 0.0000
					CHANNELS 3 Zrotation Yrotation Xrotation
					JOINT lradius  
					{
						OFFSET 24.8459 0.0000 0.0000
						CHANNELS 3 Zrotation Yrotation Xrotation
						JOINT lhand    
						{
							OFFSET 24.5477 0.0000 0.0000
							CHANNELS 3 Zrotation Yrotation Xrotation
							End Site
							{
								OFFSET 8.1826 0.0000 0.0000
							}
						}
					}
				}
			}
			JOINT head     
			{
				OFFSET 0.0000 35.2030 0.0000
				CHANNELS 3 Zrotation Yrotation Xrotation
				End Site
				{
					OFFSET 0.0000 11.7343 0.0000
				}
			}
		}
		JOINT rfemur   
		{
			OFFSET -8.2817 0.0000 0.0000
			CHANNELS 3 Zrotation Yrotation Xrotation
			JOINT rtibia   
			{
				OFFSET 0.0000 -43.3627 0.0000
				CHANNELS 3 Zrotation Yrotation Xrotation
				JOINT rfoot    
				{
					OFFSET 0.0000 -38.2947 0.0000
					CHANNELS 3 Zrotation Yrotation Xrotation
					JOINT rtoes    
					{
						OFFSET 0.0000 0.0000 16.6054
						CHANNELS 3 Zrotation Yrotation Xrotation
						End Site
						{
							OFFSET 0.0000 0.0000 5.5351
						}
					}
				}
			}
		}
		JOINT lfemur   
		{
			OFFSET 8.2817 0.0000 0.0000
			CHANNELS 3 Zrotation Yrotation Xrotation
			JOINT ltibia   
			{
				OFFSET 0.0000 -43.3627 0.0000
				CHANNELS 3 Zrotation Yrotation Xrotation
				JOINT lfoot    
				{
					OFFSET 0.0000 -38.2947 0.0000
					CHANNELS 3 Zrotation Yrotation Xrotation
					JOINT ltoes    
					{
						OFFSET 0.0000 0.0000 16.6054
						CHANNELS 3 Zrotation Yrotation Xrotation
						End Site
						{
							OFFSET 0.0000 0.0000 5.5351
						}
					}
				}
			}
		}
	}
}
MOTION
Frames: 11
Frame Time: .0333333
98.029 76.738 13.56 -1.11137 -86.0032 22.9306 0 -0 0 2.69528 -17.8665 14.5497 25.9252 -18.9665 1.57035e-05 53.0187 -18.7175 -1.95734 -5.19707e-07 56.5899 -9.65406e-07 1.63535 6.44199 0.0920023 -11.4304 15.5778 6.70345e-06 -33.9258 -4.23606 -10.5743 180 -73.8144 180 -2.7054 4.39308 -0.103799 7.47339 3.35956 -24.1502 12.0132 -11.3243 -63.307 -0 -0 48.0832 -1.20275e-09 0.0932997 1.0305 0.00169997 -1.0233e-09 -24.9844 2.31441 12.895 -9.27434 -0 -0 45.0682 2.5382e-06 1.52548 -7.80996 -0.207296 2.4722e-06 -72.7831 
96.676 76.545 13.487 -0.699159 -86.0363 22.2745 0 -0 0 3.24728 -17.9923 14.5596 25.9391 -18.9156 -1.14351e-06 52.8197 -18.5497 -2.14441 -0 57.0605 -0 1.72932 6.34802 0.095902 -11.7057 15.6757 -1.77649e-05 -34.2015 -3.36951 -10.3256 180 -73.4432 180 -2.99042 4.34889 -0.113601 7.10009 3.29603 -24.0365 11.6296 -11.1792 -63.0445 -0 -0 50.0992 -6.57288e-09 0.352299 -0.111602 -0.000700001 -6.19001e-09 -18.9609 2.70594 12.381 -8.01667 -0 -0 44.7348 -2.63334e-06 1.20263 -6.66939 -0.139701 -2.43278e-08 -74.0027 
95.34 76.371 13.395 -1.20204 -86.0328 22.5686 0 -0 0 3.87906 -18.1081 14.5447 26.0062 -18.8288 5.95134e-05 52.5564 -18.2789 -2.3062 -5.40133e-07 57.4851 -9.84815e-07 1.79204 6.25147 0.0979019 -11.9856 15.738 4.20001e-05 -34.5857 -2.48751 -10.0231 -180 -73.1371 180 -3.27264 4.31067 -0.123196 6.73953 3.2234 -23.9062 11.3544 -11.0296 -62.7386 -0 -0 51.9753 1.04763e-07 0.475303 -1.36437 -0.0113002 -7.04005e-08 -13.8513 3.13652 11.7802 -6.92732 -0 -0 44.5872 -3.67547e-07 0.892293 -5.41155 -0.0842 -3.83263e-07 -74.9422 
94.025 76.219 13.285 -2.48777 -86.0092 23.6771 0 -0 0 4.57161 -18.2043 14.5093 26.1267 -18.7118 4.56124e-05 52.2482 -17.9032 -2.4549 -5.49129e-07 57.866 -9.93379e-07 1.81851 6.16242 0.0979005 -12.2571 15.7628 9.93764e-05 -35.0859 -1.60236 -9.66703 180 -72.9063 180 -3.55052 4.27972 -0.132703 6.40711 3.13377 -23.7622 11.1859 -10.8785 -62.3873 -0 -0 53.6673 6.15044e-08 0.459505 -2.69634 -0.0215997 6.68424e-08 -9.75241 3.59094 11.0987 -6.03033 -0 -0 44.6547 1.04789e-06 0.612694 -4.05195 -0.0433006 -5.55769e-08 -75.498 
92.742 76.091 13.157 -4.3311 -85.9398 25.4012 0 -0 0 5.30986 -18.2796 14.4366 26.2982 -18.5683 2.9136e-05 51.9107 -17.4313 -2.60351 -0 58.2015 -0 1.80857 6.08803 0.0962036 -12.5094 15.7503 -6.36881e-05 -35.7008 -0.723624 -9.25456 180 -72.7557 180 -3.82332 4.25659 -0.142102 6.11616 3.02094 -23.5997 11.1125 -10.7194 -62.0019 -0 -0 55.1444 -1.85766e-07 0.300703 -4.04415 -0.0212005 2.656e-08 -6.93131 4.05202 10.3462 -5.37072 -0 -0 44.9725 7.92645e-08 0.385002 -2.62178 -0.0175997 1.66016e-07 -75.5467 
91.493 75.987 13.012 -6.48705 -85.8287 27.4961 0 -0 0 6.07093 -18.326 14.3264 26.5146 -18.4034 -3.14342e-05 51.5678 -16.8686 -2.76359 -0 58.4955 -0 1.76189 6.03478 0.0929 -12.7297 15.7025 4.85277e-05 -36.428 0.13638 -8.78758 -180 -72.7009 180 -4.09045 4.24125 -0.1515 5.87665 2.87718 -23.4203 11.1201 -10.5517 -61.5948 -0 -0 56.4016 -1.6211e-08 0.0140003 -5.38588 -0.00130001 -1.37976e-09 -5.19773 4.50504 9.54025 -4.96372 -0 -0 45.5568 1.74866e-08 0.229906 -1.16128 -0.00470005 -7.85754e-08 -74.9685 
90.285 75.907 12.856 -8.59882 -85.6906 29.6023 0 -0 0 6.82264 -18.3406 14.1807 26.7673 -18.22 0.000160934 51.2452 -16.2283 -2.9464 -5.70889e-07 58.7523 -1.01416e-06 1.68083 6.00579 0.0882012 -12.9112 15.6203 3.17767e-05 -37.2619 0.968301 -8.26844 180 -72.7437 180 -4.35147 4.23254 -0.1609 5.69746 2.69703 -23.2233 11.1821 -10.3796 -61.1725 -0 -0 57.4472 -4.81874e-08 -0.378004 -6.68572 0.0439996 -5.37549e-09 -4.43444 4.92739 8.6979 -4.81818 -0 -0 46.4134 -6.05036e-10 0.171705 0.279692 0.000800009 3.74027e-09 -73.6499 
89.117 75.851 12.689 -10.5903 -85.5202 31.6426 0 -0 0 7.55937 -18.3145 14.0051 27.0404 -18.0263 -5.21799e-05 50.9684 -15.5183 -3.1595 -0 58.9814 -0 1.56722 6.00246 0.0822009 -13.0551 15.5073 0.000109616 -38.1889 1.76222 -7.70362 -180 -72.8951 180 -4.60536 4.22779 -0.170103 5.5762 2.47375 -23.0138 11.2888 -10.1969 -60.7411 -0 -0 58.2948 -1.33502e-07 -0.852506 -7.91443 0.117406 2.53362e-07 -4.40691 5.32626 7.85427 -4.93271 -0 -0 47.5351 8.41092e-09 0.218504 1.64488 0.00629997 3.95948e-08 -71.5421 
87.989 75.815 12.517 -12.1567 -85.3212 33.3136 0 -0 0 8.24265 -18.2475 13.8076 27.3237 -17.8199 -7.72299e-05 50.7599 -14.7538 -3.40746 -0 59.1918 -0 1.42529 6.02213 0.0749987 -13.1565 15.3704 -0.000125759 -39.1973 2.51176 -7.09865 -180 -73.1596 180 -4.85061 4.22459 -0.178998 5.5164 2.20611 -22.7942 11.4054 -10.009 -60.3085 -0 -0 58.9738 4.36991e-07 -1.3754 -9.04058 0.216196 -1.58549e-07 -4.96977 5.67729 7.02991 -5.29332 -0 -0 48.8997 -1.42433e-07 0.390595 2.87828 0.0196005 2.40609e-07 -68.6137 
86.901 75.798 12.344 -13.2493 -85.1213 34.5472 0 -0 0 8.85589 -18.1358 13.6013 27.6022 -17.6036 -0.000158612 50.6388 -13.9449 -3.68966 -0 59.3993 -0 1.25826 6.06114 0.0666025 -13.2193 15.2107 1.62028e-05 -40.2698 3.21174 -6.4628 180 -73.5407 -180 -5.08498 4.21904 -0.187397 5.51308 1.89308 -22.5685 11.5131 -9.81872 -59.8757 -0 -0 59.5185 6.42987e-07 -1.91597 -10.0477 0.334393 1.89775e-07 -5.88467 5.97859 6.25503 -5.87784 -0 -0 50.4721 6.5693e-07 0.693001 3.93137 0.0474997 -2.24004e-07 -64.9512 
85.85 75.799 12.171 -13.98 -84.9242 35.451 0 -0 0 9.40387 -17.9798 13.394 27.857 -17.377 7.38411e-05 50.6205 -13.1007 -4.00112 -0 59.6098 -0 1.06851 6.11435 0.0571003 -13.257 15.0357 6.05055e-05 -41.3886 3.85965 -5.80631 -180 -74.0457 180 -5.30499 4.20827 -0.195001 5.55342 1.536 -22.3446 11.6099 -9.62323 -59.4457 -0 -0 59.9528 9.34771e-08 -2.45098 -10.928 0.464898 -1.18545e-07 -6.91893 6.24521 5.56344 -6.66545 -0 -0 52.2152 4.50885e-08 1.11811 4.76617 0.092899 -3.55096e-07 -60.7445 
